<svg id="visual" viewBox="0 0 900 675" width="900" height="675" xmlns="http://www.w3.org/2000/svg" xmlns:xlink="http://www.w3.org/1999/xlink" version="1.1"><path d="M0 42L10.7 40.8C21.3 39.7 42.7 37.3 64.2 36.2C85.7 35 107.3 35 128.8 37.2C150.3 39.3 171.7 43.7 193 48.2C214.3 52.7 235.7 57.3 257 57.3C278.3 57.3 299.7 52.7 321.2 49.3C342.7 46 364.3 44 385.8 46.3C407.3 48.7 428.7 55.3 450 57.5C471.3 59.7 492.7 57.3 514.2 54C535.7 50.7 557.3 46.3 578.8 43C600.3 39.7 621.7 37.3 643 38.3C664.3 39.3 685.7 43.7 707 43.7C728.3 43.7 749.7 39.3 771.2 39.3C792.7 39.3 814.3 43.7 835.8 47C857.3 50.3 878.7 52.7 889.3 53.8L900 55L900 0L889.3 0C878.7 0 857.3 0 835.8 0C814.3 0 792.7 0 771.2 0C749.7 0 728.3 0 707 0C685.7 0 664.3 0 643 0C621.7 0 600.3 0 578.8 0C557.3 0 535.7 0 514.2 0C492.7 0 471.3 0 450 0C428.7 0 407.3 0 385.8 0C364.3 0 342.7 0 321.2 0C299.7 0 278.3 0 257 0C235.7 0 214.3 0 193 0C171.7 0 150.3 0 128.8 0C107.3 0 85.7 0 64.2 0C42.7 0 21.3 0 10.7 0L0 0Z" fill="#55ad72"></path><path d="M0 75L10.7 76.2C21.3 77.3 42.7 79.7 64.2 80.8C85.7 82 107.3 82 128.8 78.7C150.3 75.3 171.7 68.7 193 67.5C214.3 66.3 235.7 70.7 257 70.7C278.3 70.7 299.7 66.3 321.2 66.3C342.7 66.3 364.3 70.7 385.8 76.3C407.3 82 428.7 89 450 91.3C471.3 93.7 492.7 91.3 514.2 90.2C535.7 89 557.3 89 578.8 85.7C600.3 82.3 621.7 75.7 643 73.3C664.3 71 685.7 73 707 69.5C728.3 66 749.7 57 771.2 59.3C792.7 61.7 814.3 75.3 835.8 79.8C857.3 84.3 878.7 79.7 889.3 77.3L900 75L900 53L889.3 51.8C878.7 50.7 857.3 48.3 835.8 45C814.3 41.7 792.7 37.3 771.2 37.3C749.7 37.3 728.3 41.7 707 41.7C685.7 41.7 664.3 37.3 643 36.3C621.7 35.3 600.3 37.7 578.8 41C557.3 44.3 535.7 48.7 514.2 52C492.7 55.3 471.3 57.7 450 55.5C428.7 53.3 407.3 46.7 385.8 44.3C364.3 42 342.7 44 321.2 47.3C299.7 50.7 278.3 55.3 257 55.3C235.7 55.3 214.3 50.7 193 46.2C171.7 41.7 150.3 37.3 128.8 35.2C107.3 33 85.7 33 64.2 34.2C42.7 35.3 21.3 37.7 10.7 38.8L0 40Z" fill="#67c888"></path><path d="M0 123L10.7 126.3C21.3 129.7 42.7 136.3 64.2 141.8C85.7 147.3 107.3 151.7 128.8 152.8C150.3 154 171.7 152 193 145.3C214.3 138.7 235.7 127.3 257 125C278.3 122.7 299.7 129.3 321.2 131.5C342.7 133.7 364.3 131.3 385.8 134.7C407.3 138 428.7 147 450 150.5C471.3 154 492.7 152 514.2 155.5C535.7 159 557.3 168 578.8 164.5C600.3 161 621.7 145 643 142.7C664.3 140.3 685.7 151.7 707 143.8C728.3 136 749.7 109 771.2 102.3C792.7 95.7 814.3 109.3 835.8 118.3C857.3 127.3 878.7 131.7 889.3 133.8L900 136L900 73L889.3 75.3C878.7 77.7 857.3 82.3 835.8 77.8C814.3 73.3 792.7 59.7 771.2 57.3C749.7 55 728.3 64 707 67.5C685.7 71 664.3 69 643 71.3C621.7 73.7 600.3 80.3 578.8 83.7C557.3 87 535.7 87 514.2 88.2C492.7 89.3 471.3 91.7 450 89.3C428.7 87 407.3 80 385.8 74.3C364.3 68.7 342.7 64.3 321.2 64.3C299.7 64.3 278.3 68.7 257 68.7C235.7 68.7 214.3 64.3 193 65.5C171.7 66.7 150.3 73.3 128.8 76.7C107.3 80 85.7 80 64.2 78.8C42.7 77.7 21.3 75.3 10.7 74.2L0 73Z" fill="#79e49f"></path><path d="M0 143L10.7 154.2C21.3 165.3 42.7 187.7 64.2 193.3C85.7 199 107.3 188 128.8 182.5C150.3 177 171.7 177 193 175.8C214.3 174.7 235.7 172.3 257 171.2C278.3 170 299.7 170 321.2 174.5C342.7 179 364.3 188 385.8 189.2C407.3 190.3 428.7 183.7 450 185.8C471.3 188 492.7 199 514.2 205.7C535.7 212.3 557.3 214.7 578.8 204.7C600.3 194.7 621.7 172.3 643 169C664.3 165.7 685.7 181.3 707 177.8C728.3 174.3 749.7 151.7 771.2 150.5C792.7 149.3 814.3 169.7 835.8 177.7C857.3 185.7 878.7 181.3 889.3 179.2L900 177L900 134L889.3 131.8C878.7 129.7 857.3 125.3 835.8 116.3C814.3 107.3 792.7 93.7 771.2 100.3C749.7 107 728.3 134 707 141.8C685.7 149.7 664.3 138.3 643 140.7C621.7 143 600.3 159 578.8 162.5C557.3 166 535.7 157 514.2 153.5C492.7 150 471.3 152 450 148.5C428.7 145 407.3 136 385.8 132.7C364.3 129.3 342.7 131.7 321.2 129.5C299.7 127.3 278.3 120.7 257 123C235.7 125.3 214.3 136.7 193 143.3C171.7 150 150.3 152 128.8 150.8C107.3 149.7 85.7 145.3 64.2 139.8C42.7 134.3 21.3 127.7 10.7 124.3L0 121Z" fill="#90e9ae"></path><path d="M0 177L10.7 188.2C21.3 199.3 42.7 221.7 64.2 229.5C85.7 237.3 107.3 230.7 128.8 224C150.3 217.3 171.7 210.7 193 208.3C214.3 206 235.7 208 257 205.7C278.3 203.3 299.7 196.7 321.2 202.3C342.7 208 364.3 226 385.8 227.2C407.3 228.3 428.7 212.7 450 213.8C471.3 215 492.7 233 514.2 238.7C535.7 244.3 557.3 237.7 578.8 225.3C600.3 213 621.7 195 643 192.7C664.3 190.3 685.7 203.7 707 202.5C728.3 201.3 749.7 185.7 771.2 185.7C792.7 185.7 814.3 201.3 835.8 205.8C857.3 210.3 878.7 203.7 889.3 200.3L900 197L900 175L889.3 177.2C878.7 179.3 857.3 183.7 835.8 175.7C814.3 167.7 792.7 147.3 771.2 148.5C749.7 149.7 728.3 172.3 707 175.8C685.7 179.3 664.3 163.7 643 167C621.7 170.3 600.3 192.7 578.8 202.7C557.3 212.7 535.7 210.3 514.2 203.7C492.7 197 471.3 186 450 183.8C428.7 181.7 407.3 188.3 385.8 187.2C364.3 186 342.7 177 321.2 172.5C299.7 168 278.3 168 257 169.2C235.7 170.3 214.3 172.7 193 173.8C171.7 175 150.3 175 128.8 180.5C107.3 186 85.7 197 64.2 191.3C42.7 185.7 21.3 163.3 10.7 152.2L0 141Z" fill="#a6edbd"></path><path d="M0 413L10.7 411.8C21.3 410.7 42.7 408.3 64.2 408.3C85.7 408.3 107.3 410.7 128.8 396C150.3 381.3 171.7 349.7 193 337.3C214.3 325 235.7 332 257 324.2C278.3 316.3 299.7 293.7 321.2 293.7C342.7 293.7 364.3 316.3 385.8 337.7C407.3 359 428.7 379 450 385.7C471.3 392.3 492.7 385.7 514.2 370C535.7 354.3 557.3 329.7 578.8 317.3C600.3 305 621.7 305 643 315.2C664.3 325.3 685.7 345.7 707 347.8C728.3 350 749.7 334 771.2 344C792.7 354 814.3 390 835.8 389C857.3 388 878.7 350 889.3 331L900 312L900 195L889.3 198.3C878.7 201.7 857.3 208.3 835.8 203.8C814.3 199.3 792.7 183.7 771.2 183.7C749.7 183.7 728.3 199.3 707 200.5C685.7 201.7 664.3 188.3 643 190.7C621.7 193 600.3 211 578.8 223.3C557.3 235.7 535.7 242.3 514.2 236.7C492.7 231 471.3 213 450 211.8C428.7 210.7 407.3 226.3 385.8 225.2C364.3 224 342.7 206 321.2 200.3C299.7 194.7 278.3 201.3 257 203.7C235.7 206 214.3 204 193 206.3C171.7 208.7 150.3 215.3 128.8 222C107.3 228.7 85.7 235.3 64.2 227.5C42.7 219.7 21.3 197.3 10.7 186.2L0 175Z" fill="#a6edbd"></path><path d="M0 480L10.7 475.5C21.3 471 42.7 462 64.2 467.7C85.7 473.3 107.3 493.7 128.8 482.5C150.3 471.3 171.7 428.7 193 409.5C214.3 390.3 235.7 394.7 257 396.8C278.3 399 299.7 399 321.2 395.7C342.7 392.3 364.3 385.7 385.8 398C407.3 410.3 428.7 441.7 450 453C471.3 464.3 492.7 455.7 514.2 441.2C535.7 426.7 557.3 406.3 578.8 395C600.3 383.7 621.7 381.3 643 387C664.3 392.7 685.7 406.3 707 408.7C728.3 411 749.7 402 771.2 413.2C792.7 424.3 814.3 455.7 835.8 453.3C857.3 451 878.7 415 889.3 397L900 379L900 310L889.3 329C878.7 348 857.3 386 835.8 387C814.3 388 792.7 352 771.2 342C749.7 332 728.3 348 707 345.8C685.7 343.7 664.3 323.3 643 313.2C621.7 303 600.3 303 578.8 315.3C557.3 327.7 535.7 352.3 514.2 368C492.7 383.7 471.3 390.3 450 383.7C428.7 377 407.3 357 385.8 335.7C364.3 314.3 342.7 291.7 321.2 291.7C299.7 291.7 278.3 314.3 257 322.2C235.7 330 214.3 323 193 335.3C171.7 347.7 150.3 379.3 128.8 394C107.3 408.7 85.7 406.3 64.2 406.3C42.7 406.3 21.3 408.7 10.7 409.8L0 411Z" fill="#a6edbd"></path><path d="M0 521L10.7 514.2C21.3 507.3 42.7 493.7 64.2 497C85.7 500.3 107.3 520.7 128.8 509.5C150.3 498.3 171.7 455.7 193 436.5C214.3 417.3 235.7 421.7 257 426.2C278.3 430.7 299.7 435.3 321.2 429.8C342.7 424.3 364.3 408.7 385.8 421C407.3 433.3 428.7 473.7 450 488.2C471.3 502.7 492.7 491.3 514.2 474.5C535.7 457.7 557.3 435.3 578.8 421.8C600.3 408.3 621.7 403.7 643 410.3C664.3 417 685.7 435 707 439.5C728.3 444 749.7 435 771.2 444C792.7 453 814.3 480 835.8 477.8C857.3 475.7 878.7 444.3 889.3 428.7L900 413L900 377L889.3 395C878.7 413 857.3 449 835.8 451.3C814.3 453.7 792.7 422.3 771.2 411.2C749.7 400 728.3 409 707 406.7C685.7 404.3 664.3 390.7 643 385C621.7 379.3 600.3 381.7 578.8 393C557.3 404.3 535.7 424.7 514.2 439.2C492.7 453.7 471.3 462.3 450 451C428.7 439.7 407.3 408.3 385.8 396C364.3 383.7 342.7 390.3 321.2 393.7C299.7 397 278.3 397 257 394.8C235.7 392.7 214.3 388.3 193 407.5C171.7 426.7 150.3 469.3 128.8 480.5C107.3 491.7 85.7 471.3 64.2 465.7C42.7 460 21.3 469 10.7 473.5L0 478Z" fill="#90e9ae"></path><path d="M0 561L10.7 551C21.3 541 42.7 521 64.2 525.5C85.7 530 107.3 559 128.8 548.8C150.3 538.7 171.7 489.3 193 471.3C214.3 453.3 235.7 466.7 257 473.3C278.3 480 299.7 480 321.2 472.2C342.7 464.3 364.3 448.7 385.8 460C407.3 471.3 428.7 509.7 450 522C471.3 534.3 492.7 520.7 514.2 504.8C535.7 489 557.3 471 578.8 462C600.3 453 621.7 453 643 462C664.3 471 685.7 489 707 493.5C728.3 498 749.7 489 771.2 495.8C792.7 502.7 814.3 525.3 835.8 519.8C857.3 514.3 878.7 480.7 889.3 463.8L900 447L900 411L889.3 426.7C878.7 442.3 857.3 473.7 835.8 475.8C814.3 478 792.7 451 771.2 442C749.7 433 728.3 442 707 437.5C685.7 433 664.3 415 643 408.3C621.7 401.7 600.3 406.3 578.8 419.8C557.3 433.3 535.7 455.7 514.2 472.5C492.7 489.3 471.3 500.7 450 486.2C428.7 471.7 407.3 431.3 385.8 419C364.3 406.7 342.7 422.3 321.2 427.8C299.7 433.3 278.3 428.7 257 424.2C235.7 419.7 214.3 415.3 193 434.5C171.7 453.7 150.3 496.3 128.8 507.5C107.3 518.7 85.7 498.3 64.2 495C42.7 491.7 21.3 505.3 10.7 512.2L0 519Z" fill="#79e49f"></path><path d="M0 636L10.7 637C21.3 638 42.7 640 64.2 642.2C85.7 644.3 107.3 646.7 128.8 645.7C150.3 644.7 171.7 640.3 193 633.7C214.3 627 235.7 618 257 619C278.3 620 299.7 631 321.2 634.3C342.7 637.7 364.3 633.3 385.8 633.3C407.3 633.3 428.7 637.7 450 641C471.3 644.3 492.7 646.7 514.2 643.3C535.7 640 557.3 631 578.8 625.3C600.3 619.7 621.7 617.3 643 617.3C664.3 617.3 685.7 619.7 707 617.5C728.3 615.3 749.7 608.7 771.2 612C792.7 615.3 814.3 628.7 835.8 628.7C857.3 628.7 878.7 615.3 889.3 608.7L900 602L900 445L889.3 461.8C878.7 478.7 857.3 512.3 835.8 517.8C814.3 523.3 792.7 500.7 771.2 493.8C749.7 487 728.3 496 707 491.5C685.7 487 664.3 469 643 460C621.7 451 600.3 451 578.8 460C557.3 469 535.7 487 514.2 502.8C492.7 518.7 471.3 532.3 450 520C428.7 507.7 407.3 469.3 385.8 458C364.3 446.7 342.7 462.3 321.2 470.2C299.7 478 278.3 478 257 471.3C235.7 464.7 214.3 451.3 193 469.3C171.7 487.3 150.3 536.7 128.8 546.8C107.3 557 85.7 528 64.2 523.5C42.7 519 21.3 539 10.7 549L0 559Z" fill="#67c888"></path><path d="M0 676L10.7 676C21.3 676 42.7 676 64.2 676C85.7 676 107.3 676 128.8 676C150.3 676 171.7 676 193 676C214.3 676 235.7 676 257 676C278.3 676 299.7 676 321.2 676C342.7 676 364.3 676 385.8 676C407.3 676 428.7 676 450 676C471.3 676 492.7 676 514.2 676C535.7 676 557.3 676 578.8 676C600.3 676 621.7 676 643 676C664.3 676 685.7 676 707 676C728.3 676 749.7 676 771.2 676C792.7 676 814.3 676 835.8 676C857.3 676 878.7 676 889.3 676L900 676L900 600L889.3 606.7C878.7 613.3 857.3 626.7 835.8 626.7C814.3 626.7 792.7 613.3 771.2 610C749.7 606.7 728.3 613.3 707 615.5C685.7 617.7 664.3 615.3 643 615.3C621.7 615.3 600.3 617.7 578.8 623.3C557.3 629 535.7 638 514.2 641.3C492.7 644.7 471.3 642.3 450 639C428.7 635.7 407.3 631.3 385.8 631.3C364.3 631.3 342.7 635.7 321.2 632.3C299.7 629 278.3 618 257 617C235.7 616 214.3 625 193 631.7C171.7 638.3 150.3 642.7 128.8 643.7C107.3 644.7 85.7 642.3 64.2 640.2C42.7 638 21.3 636 10.7 635L0 634Z" fill="#55ad72"></path></svg>