<svg id="visual" viewBox="0 0 900 675" width="900" height="675" xmlns="http://www.w3.org/2000/svg" xmlns:xlink="http://www.w3.org/1999/xlink" version="1.1"><path d="M0 69L10 73.5C20 78 40 87 60 87C80 87 100 78 120 84.7C140 91.3 160 113.7 180 111.3C200 109 220 82 240 66.3C260 50.7 280 46.3 300 61C320 75.7 340 109.3 360 113.8C380 118.3 400 93.7 420 80.2C440 66.7 460 64.3 480 66.5C500 68.7 520 75.3 540 76.5C560 77.7 580 73.3 600 64.3C620 55.3 640 41.7 660 48.3C680 55 700 82 720 92.2C740 102.3 760 95.7 780 94.5C800 93.3 820 97.7 840 97.7C860 97.7 880 93.3 890 91.2L900 89L900 0L890 0C880 0 860 0 840 0C820 0 800 0 780 0C760 0 740 0 720 0C700 0 680 0 660 0C640 0 620 0 600 0C580 0 560 0 540 0C520 0 500 0 480 0C460 0 440 0 420 0C400 0 380 0 360 0C340 0 320 0 300 0C280 0 260 0 240 0C220 0 200 0 180 0C160 0 140 0 120 0C100 0 80 0 60 0C40 0 20 0 10 0L0 0Z" fill="#a3ffc3"></path><path d="M0 156L10 171.8C20 187.7 40 219.3 60 214.8C80 210.3 100 169.7 120 177.5C140 185.3 160 241.7 180 248.5C200 255.3 220 212.7 240 202.5C260 192.3 280 214.7 300 214.7C320 214.7 340 192.3 360 187.8C380 183.3 400 196.7 420 191C440 185.3 460 160.7 480 143.8C500 127 520 118 540 137.2C560 156.3 580 203.7 600 219.5C620 235.3 640 219.7 660 214C680 208.3 700 212.7 720 204.7C740 196.7 760 176.3 780 167.3C800 158.3 820 160.7 840 176.5C860 192.3 880 221.7 890 236.3L900 251L900 87L890 89.2C880 91.3 860 95.7 840 95.7C820 95.7 800 91.3 780 92.5C760 93.7 740 100.3 720 90.2C700 80 680 53 660 46.3C640 39.7 620 53.3 600 62.3C580 71.3 560 75.7 540 74.5C520 73.3 500 66.7 480 64.5C460 62.3 440 64.7 420 78.2C400 91.7 380 116.3 360 111.8C340 107.3 320 73.7 300 59C280 44.3 260 48.7 240 64.3C220 80 200 107 180 109.3C160 111.7 140 89.3 120 82.7C100 76 80 85 60 85C40 85 20 76 10 71.5L0 67Z" fill="#baffd2"></path><path d="M0 447L10 438C20 429 40 411 60 385C80 359 100 325 120 318.2C140 311.3 160 331.7 180 334C200 336.3 220 320.7 240 315C260 309.3 280 313.7 300 321.5C320 329.3 340 340.7 360 370C380 399.3 400 446.7 420 447.8C440 449 460 404 480 357.8C500 311.7 520 264.3 540 256.5C560 248.7 580 280.3 600 300.7C620 321 640 330 660 348C680 366 700 393 720 407.5C740 422 760 424 780 409.3C800 394.7 820 363.3 840 358.8C860 354.3 880 376.7 890 387.8L900 399L900 249L890 234.3C880 219.7 860 190.3 840 174.5C820 158.7 800 156.3 780 165.3C760 174.3 740 194.7 720 202.7C700 210.7 680 206.3 660 212C640 217.7 620 233.3 600 217.5C580 201.7 560 154.3 540 135.2C520 116 500 125 480 141.8C460 158.7 440 183.3 420 189C400 194.7 380 181.3 360 185.8C340 190.3 320 212.7 300 212.7C280 212.7 260 190.3 240 200.5C220 210.7 200 253.3 180 246.5C160 239.7 140 183.3 120 175.5C100 167.7 80 208.3 60 212.8C40 217.3 20 185.7 10 169.8L0 154Z" fill="#cfffdd"></path><path d="M0 507L10 502.5C20 498 40 489 60 482.3C80 475.7 100 471.3 120 480.3C140 489.3 160 511.7 180 515C200 518.3 220 502.7 240 502.7C260 502.7 280 518.3 300 529.7C320 541 340 548 360 559.3C380 570.7 400 586.3 420 582.8C440 579.3 460 556.7 480 539.8C500 523 520 512 540 514.3C560 516.7 580 532.3 600 540.2C620 548 640 548 660 546.8C680 545.7 700 543.3 720 529.8C740 516.3 760 491.7 780 486C800 480.3 820 493.7 840 498.2C860 502.7 880 498.3 890 496.2L900 494L900 397L890 385.8C880 374.7 860 352.3 840 356.8C820 361.3 800 392.7 780 407.3C760 422 740 420 720 405.5C700 391 680 364 660 346C640 328 620 319 600 298.7C580 278.3 560 246.7 540 254.5C520 262.3 500 309.7 480 355.8C460 402 440 447 420 445.8C400 444.7 380 397.3 360 368C340 338.7 320 327.3 300 319.5C280 311.7 260 307.3 240 313C220 318.7 200 334.3 180 332C160 329.7 140 309.3 120 316.2C100 323 80 357 60 383C40 409 20 427 10 436L0 445Z" fill="#d7ffe1"></path><path d="M0 575L10 573.8C20 572.7 40 570.3 60 565.8C80 561.3 100 554.7 120 553.5C140 552.3 160 556.7 180 561.2C200 565.7 220 570.3 240 569.3C260 568.3 280 561.7 300 560.5C320 559.3 340 563.7 360 576C380 588.3 400 608.7 420 612C440 615.3 460 601.7 480 590.3C500 579 520 570 540 566.7C560 563.3 580 565.7 600 575.8C620 586 640 604 660 610.8C680 617.7 700 613.3 720 602.2C740 591 760 573 780 566.2C800 559.3 820 563.7 840 564.7C860 565.7 880 563.3 890 562.2L900 561L900 492L890 494.2C880 496.3 860 500.7 840 496.2C820 491.7 800 478.3 780 484C760 489.7 740 514.3 720 527.8C700 541.3 680 543.7 660 544.8C640 546 620 546 600 538.2C580 530.3 560 514.7 540 512.3C520 510 500 521 480 537.8C460 554.7 440 577.3 420 580.8C400 584.3 380 568.7 360 557.3C340 546 320 539 300 527.7C280 516.3 260 500.7 240 500.7C220 500.7 200 516.3 180 513C160 509.7 140 487.3 120 478.3C100 469.3 80 473.7 60 480.3C40 487 20 496 10 500.5L0 505Z" fill="#cfffdd"></path><path d="M0 588L10 593.7C20 599.3 40 610.7 60 618.7C80 626.7 100 631.3 120 635.8C140 640.3 160 644.7 180 646.8C200 649 220 649 240 640C260 631 280 613 300 605.2C320 597.3 340 599.7 360 608.7C380 617.7 400 633.3 420 639C440 644.7 460 640.3 480 633.7C500 627 520 618 540 613.5C560 609 580 609 600 613.5C620 618 640 627 660 630.3C680 633.7 700 631.3 720 631.3C740 631.3 760 633.7 780 638.2C800 642.7 820 649.3 840 641.3C860 633.3 880 610.7 890 599.3L900 588L900 559L890 560.2C880 561.3 860 563.7 840 562.7C820 561.7 800 557.3 780 564.2C760 571 740 589 720 600.2C700 611.3 680 615.7 660 608.8C640 602 620 584 600 573.8C580 563.7 560 561.3 540 564.7C520 568 500 577 480 588.3C460 599.7 440 613.3 420 610C400 606.7 380 586.3 360 574C340 561.7 320 557.3 300 558.5C280 559.7 260 566.3 240 567.3C220 568.3 200 563.7 180 559.2C160 554.7 140 550.3 120 551.5C100 552.7 80 559.3 60 563.8C40 568.3 20 570.7 10 571.8L0 573Z" fill="#baffd2"></path><path d="M0 676L10 676C20 676 40 676 60 676C80 676 100 676 120 676C140 676 160 676 180 676C200 676 220 676 240 676C260 676 280 676 300 676C320 676 340 676 360 676C380 676 400 676 420 676C440 676 460 676 480 676C500 676 520 676 540 676C560 676 580 676 600 676C620 676 640 676 660 676C680 676 700 676 720 676C740 676 760 676 780 676C800 676 820 676 840 676C860 676 880 676 890 676L900 676L900 586L890 597.3C880 608.7 860 631.3 840 639.3C820 647.3 800 640.7 780 636.2C760 631.7 740 629.3 720 629.3C700 629.3 680 631.7 660 628.3C640 625 620 616 600 611.5C580 607 560 607 540 611.5C520 616 500 625 480 631.7C460 638.3 440 642.7 420 637C400 631.3 380 615.7 360 606.7C340 597.7 320 595.3 300 603.2C280 611 260 629 240 638C220 647 200 647 180 644.8C160 642.7 140 638.3 120 633.8C100 629.3 80 624.7 60 616.7C40 608.7 20 597.3 10 591.7L0 586Z" fill="#a3ffc3"></path></svg>