<svg id="visual" viewBox="0 0 900 675" width="900" height="675" xmlns="http://www.w3.org/2000/svg" xmlns:xlink="http://www.w3.org/1999/xlink" version="1.1"><rect x="0" y="0" width="900" height="675" fill="#BEFFD5"></rect><path d="M0 363L12.5 349C25 335 50 307 75 299.5C100 292 125 305 150 316.5C175 328 200 338 225 348.5C250 359 275 370 300 359.7C325 349.3 350 317.7 375 300.8C400 284 425 282 450 274.5C475 267 500 254 525 262.7C550 271.3 575 301.7 600 312.2C625 322.7 650 313.3 675 304.5C700 295.7 725 287.3 750 284.2C775 281 800 283 825 290.8C850 298.7 875 312.3 887.5 319.2L900 326L900 0L887.5 0C875 0 850 0 825 0C800 0 775 0 750 0C725 0 700 0 675 0C650 0 625 0 600 0C575 0 550 0 525 0C500 0 475 0 450 0C425 0 400 0 375 0C350 0 325 0 300 0C275 0 250 0 225 0C200 0 175 0 150 0C125 0 100 0 75 0C50 0 25 0 12.5 0L0 0Z" fill="#79e49f"></path></svg>